<svg width="1371" height="1045" viewBox="0 0 1371 1045" fill="none" xmlns="http://www.w3.org/2000/svg">
<path d="M946.699 523.85C968.145 537.957 981.012 561.722 981.012 587.171V866.698C981.012 883.092 962.362 892.75 948.7 883.441L828.635 792.765C815.958 783.17 808.524 768.301 808.524 752.542C808.524 745.14 802.456 739.167 794.989 739.167C786.538 739.167 777.292 739.167 777.292 739.167H593.367H575.67C568.172 739.167 562.103 745.171 562.103 752.542C562.103 768.301 554.669 783.17 541.992 792.765C503.231 822.059 421.927 883.441 421.927 883.441C408.265 892.75 389.615 883.092 389.615 866.698V587.171C389.615 561.722 402.483 537.957 423.929 523.85C448.933 507.393 464.978 480.546 467.487 450.966L474.382 369.186C483.373 262.497 522.992 160.542 588.569 75.2987L623.041 30.5007C654.336 -10.1669 716.291 -10.1669 747.554 30.5007L782.026 75.2987C847.603 160.542 887.222 262.497 896.214 369.186L903.108 450.966C905.618 480.546 921.631 507.393 946.667 523.85H946.699Z" fill="#4867FF"/>
<path d="M458.051 78.6351C436.828 114.601 419.099 152.377 405.056 191.456C400.989 202.735 390.346 210.328 378.336 210.328H202.671C187.008 210.328 174.299 223.037 174.299 238.7V935.388C174.299 944.284 170.137 952.672 163.02 958.042L55.4732 1039.28C50.5486 1043 44.5438 1045 38.3801 1045H28.372C12.7086 1045 0 1032.29 0 1016.63V64.3696C0 48.7062 12.7086 35.9976 28.372 35.9976H433.524C455.414 35.9976 469.171 59.7945 458.051 78.6351Z" fill="#4867FF"/>
<path d="M912.512 78.6351C933.736 114.601 951.464 152.377 965.507 191.456C969.574 202.735 980.217 210.328 992.227 210.328H1167.89C1183.56 210.328 1196.26 223.037 1196.26 238.7V935.388C1196.26 944.284 1200.43 952.672 1207.54 958.042L1315.09 1039.28C1320.01 1043 1326.02 1045 1332.18 1045H1342.19C1357.85 1045 1370.56 1032.29 1370.56 1016.63V64.3696C1370.56 48.7062 1357.85 35.9976 1342.19 35.9976H937.04C915.149 35.9976 901.392 59.7945 912.512 78.6351Z" fill="#4867FF"/>
</svg>
