<svg width="2785" height="607" viewBox="0 0 2785 607" fill="none" xmlns="http://www.w3.org/2000/svg">
<path d="M0 599.499H107.039V373.921H277.557V289.027H107.039V152.155H329.567V65.7679H0V599.499Z" fill="white"/>
<path d="M672.892 236.285C658.627 216.905 639.627 200.86 615.926 188.12C592.224 175.379 564.551 168.993 532.97 168.993C496.782 168.993 464.026 177.921 434.701 195.745C405.375 213.6 382.182 239.081 365.121 272.219C348.027 305.357 339.513 343.324 339.513 386.152C339.513 428.98 348.059 467.837 365.121 501.229C382.182 534.621 405.375 560.483 434.701 578.847C463.994 597.211 496.496 606.361 532.208 606.361C563.82 606.361 591.716 599.848 615.926 586.853C640.136 573.859 659.135 557.401 672.892 537.544V599.498H780.725V175.887H672.892V236.285ZM657.61 454.588C647.412 473.206 633.654 487.472 616.307 497.416C598.96 507.361 580.373 512.317 560.484 512.317C540.595 512.317 522.899 507.234 505.805 497.035C488.712 486.836 474.955 472.189 464.502 453.063C454.049 433.936 448.839 411.665 448.839 386.152C448.839 360.639 454.049 338.622 464.502 320.003C474.955 301.417 488.585 287.247 505.424 277.557C522.231 267.866 540.595 263.037 560.484 263.037C580.373 263.037 598.96 267.993 616.307 277.938C633.623 287.882 647.412 302.148 657.61 320.766C667.809 339.384 672.892 361.688 672.892 387.677C672.892 413.666 667.777 435.97 657.61 454.588Z" fill="white"/>
<path d="M954.26 175.856H847.222V599.467H954.26V175.856Z" fill="white"/>
<path d="M901.518 6.10352e-05C882.646 6.10352e-05 866.983 6.00491 854.496 17.9828C842.01 29.9607 835.751 44.8934 835.751 62.7172C835.751 80.5411 841.978 95.4737 854.496 107.452C866.983 119.43 882.646 125.434 901.518 125.434C920.391 125.434 936.054 119.461 948.54 107.452C961.026 95.4737 967.286 80.5729 967.286 62.7172C967.286 44.8616 961.026 29.9607 948.54 17.9828C936.054 6.00491 920.359 6.10352e-05 901.518 6.10352e-05Z" fill="white"/>
<path d="M1128.62 33.6457H1021.58V599.498H1128.62V33.6457Z" fill="white"/>
<path d="M1339.68 599.499H1446.72V373.921H1617.24V289.027H1446.72V152.155H1669.25V65.7679H1339.68V599.499Z" fill="white"/>
<path d="M2012.57 236.285C1998.31 216.905 1979.31 200.86 1955.6 188.12C1931.9 175.379 1904.23 168.993 1872.65 168.993C1836.46 168.993 1803.7 177.921 1774.38 195.745C1745.05 213.6 1721.86 239.081 1704.8 272.219C1687.71 305.357 1679.19 343.324 1679.19 386.152C1679.19 428.98 1687.74 467.837 1704.8 501.229C1721.86 534.621 1745.05 560.483 1774.38 578.847C1803.67 597.211 1836.17 606.361 1871.89 606.361C1903.5 606.361 1931.39 599.848 1955.6 586.853C1979.81 573.859 1998.81 557.401 2012.57 537.544V599.498H2120.4V175.888H2012.57V236.285ZM1997.29 454.588C1987.09 473.206 1973.33 487.472 1955.99 497.416C1938.64 507.361 1920.05 512.317 1900.16 512.317C1880.27 512.317 1862.58 507.234 1845.48 497.035C1828.39 486.836 1814.63 472.19 1804.18 453.063C1793.73 433.937 1788.52 411.665 1788.52 386.152C1788.52 360.639 1793.73 338.622 1804.18 320.004C1814.63 301.417 1828.26 287.247 1845.1 277.557C1861.91 267.866 1880.27 263.037 1900.16 263.037C1920.05 263.037 1938.64 267.993 1955.99 277.938C1973.3 287.882 1987.09 302.148 1997.29 320.766C2007.49 339.384 2012.57 361.688 2012.57 387.677C2012.57 413.666 2007.46 435.97 1997.29 454.588Z" fill="white"/>
<path d="M2441.55 373.157C2421.66 365.024 2396.44 357.113 2365.84 349.456C2335.75 341.799 2313.58 334.301 2299.31 326.898C2285.05 319.527 2277.9 308.693 2277.9 294.396C2277.9 281.655 2283.11 271.711 2293.56 264.562C2304.01 257.413 2318.91 253.855 2338.3 253.855C2359.2 253.855 2375.88 258.811 2388.37 268.756C2400.85 278.7 2407.88 292.076 2409.4 308.915H2511.86C2508.81 266.087 2492.23 232.06 2462.17 206.833C2432.08 181.606 2391.83 168.993 2341.35 168.993C2307.19 168.993 2277.48 174.617 2252.26 185.8C2227.03 197.016 2207.65 212.298 2194.15 231.678C2180.64 251.059 2173.88 272.473 2173.88 295.921C2173.88 324.483 2181.15 347.168 2195.67 363.975C2210.19 380.783 2227.54 393.301 2247.68 401.434C2267.83 409.599 2293.69 417.479 2325.3 425.136C2355.9 433.301 2378.17 440.799 2392.21 447.694C2406.22 454.588 2413.24 464.914 2413.24 478.671C2413.24 491.411 2407.53 501.864 2396.02 510.03C2384.55 518.195 2368.61 522.262 2348.24 522.262C2327.87 522.262 2309.89 516.924 2295.85 506.217C2281.81 495.51 2273.8 482.007 2271.77 465.676H2163.93C2165.46 491.666 2174.26 515.367 2190.3 536.781C2206.35 558.195 2228.14 575.161 2255.69 587.616C2283.2 600.102 2314.31 606.361 2348.97 606.361C2383.63 606.361 2412.07 600.865 2437.3 589.935C2462.52 578.974 2481.9 563.819 2495.41 544.438C2508.91 525.057 2515.68 503.135 2515.68 478.671C2515.17 450.648 2507.64 428.091 2493.12 410.997C2478.6 393.936 2461.38 381.291 2441.49 373.157H2441.55Z" fill="white"/>
<path d="M2784.88 263.799V175.856H2690.07V71.1046H2582.24V175.856H2531.79V263.799H2582.24V467.964C2582.24 555.653 2627.35 599.498 2717.59 599.498H2784.88V509.267H2735.19C2718.86 509.267 2707.29 506.09 2700.4 499.704C2693.5 493.349 2690.07 483.024 2690.07 468.726V263.799H2784.88Z" fill="white"/>
</svg>
