<svg width="1764" height="1764" viewBox="0 0 1764 1764" fill="none" xmlns="http://www.w3.org/2000/svg">
<g clip-path="url(#clip0_2189_96)">
<path d="M1087.07 644.038C1103.95 655.14 1114.07 673.843 1114.07 693.872V913.865C1114.07 926.767 1099.4 934.368 1088.64 927.042L994.151 855.678C984.174 848.127 978.323 836.425 978.323 824.022C978.323 818.196 973.547 813.495 967.671 813.495C961.02 813.495 953.743 813.495 953.743 813.495H808.991H795.063C789.162 813.495 784.386 818.221 784.386 824.022C784.386 836.425 778.535 848.127 768.558 855.678C738.052 878.733 674.065 927.042 674.065 927.042C663.313 934.368 648.635 926.767 648.635 913.865V693.872C648.635 673.843 658.762 655.14 675.64 644.038C695.319 631.085 707.946 609.956 709.922 586.677L715.348 522.314C722.424 438.348 753.605 358.108 805.215 291.02L832.345 255.763C856.975 223.757 905.734 223.757 930.339 255.763L957.469 291.02C1009.08 358.108 1040.26 438.348 1047.34 522.314L1052.76 586.677C1054.74 609.956 1067.34 631.085 1087.04 644.038H1087.07Z" fill="#4867FF"/>
<path d="M702.494 293.646C685.791 321.952 671.838 351.682 660.786 382.438C657.585 391.315 649.209 397.291 639.757 397.291H501.506C489.178 397.291 479.176 407.293 479.176 419.62V967.925C479.176 974.927 475.901 981.528 470.3 985.754L385.658 1049.69C381.783 1052.62 377.057 1054.19 372.206 1054.19H364.329C352.002 1054.19 342 1044.19 342 1031.86V282.419C342 270.092 352.002 260.09 364.329 260.09H683.19C700.419 260.09 711.246 278.818 702.494 293.646Z" fill="#4867FF"/>
<path d="M1060.17 293.646C1076.87 321.952 1090.82 351.682 1101.87 382.438C1105.07 391.315 1113.45 397.291 1122.9 397.291H1261.15C1273.48 397.291 1283.48 407.293 1283.48 419.62V967.925C1283.48 974.927 1286.76 981.528 1292.36 985.754L1377 1049.69C1380.88 1052.62 1385.6 1054.19 1390.45 1054.19H1398.33C1410.66 1054.19 1420.66 1044.19 1420.66 1031.86V282.419C1420.66 270.092 1410.66 260.09 1398.33 260.09H1079.47C1062.24 260.09 1051.41 278.818 1060.17 293.646Z" fill="#4867FF"/>
<path d="M344.6 1353.87H387.353V1263.77H455.462V1229.87H387.353V1175.2H476.236V1140.69H344.6V1353.87Z" fill="white"/>
<path d="M613.368 1208.8C607.67 1201.06 600.081 1194.65 590.614 1189.56C581.147 1184.47 570.094 1181.92 557.48 1181.92C543.026 1181.92 529.942 1185.49 518.229 1192.61C506.516 1199.74 497.252 1209.92 490.437 1223.15C483.61 1236.39 480.209 1251.55 480.209 1268.66C480.209 1285.77 483.623 1301.29 490.437 1314.62C497.252 1327.96 506.516 1338.29 518.229 1345.63C529.93 1352.96 542.912 1356.62 557.176 1356.62C569.802 1356.62 580.944 1354.01 590.614 1348.82C600.284 1343.63 607.873 1337.06 613.368 1329.13V1353.87H656.439V1184.67H613.368V1208.8ZM607.264 1295.99C603.191 1303.43 597.696 1309.13 590.767 1313.1C583.838 1317.07 576.414 1319.05 568.47 1319.05C560.526 1319.05 553.457 1317.02 546.63 1312.95C539.803 1308.87 534.308 1303.02 530.133 1295.38C525.957 1287.75 523.876 1278.85 523.876 1268.66C523.876 1258.47 525.957 1249.67 530.133 1242.24C534.308 1234.81 539.752 1229.15 546.478 1225.28C553.191 1221.41 560.526 1219.48 568.47 1219.48C576.414 1219.48 583.838 1221.46 590.767 1225.44C597.683 1229.41 603.191 1235.11 607.264 1242.54C611.338 1249.98 613.368 1258.89 613.368 1269.27C613.368 1279.65 611.325 1288.56 607.264 1295.99Z" fill="white"/>
<path d="M725.754 1184.66H683V1353.86H725.754V1184.66Z" fill="white"/>
<path d="M704.687 1114.42C697.149 1114.42 690.893 1116.82 685.905 1121.6C680.918 1126.39 678.418 1132.35 678.418 1139.47C678.418 1146.59 680.905 1152.55 685.905 1157.34C690.893 1162.12 697.149 1164.52 704.687 1164.52C712.225 1164.52 718.481 1162.14 723.468 1157.34C728.456 1152.55 730.956 1146.6 730.956 1139.47C730.956 1132.34 728.456 1126.39 723.468 1121.6C718.481 1116.82 712.212 1114.42 704.687 1114.42Z" fill="white"/>
<path d="M795.392 1127.86H752.639V1353.87H795.392V1127.86Z" fill="white"/>
<path d="M879.695 1353.87H922.449V1263.77H990.557V1229.87H922.449V1175.2H1011.33V1140.69H879.695V1353.87Z" fill="white"/>
<path d="M1148.47 1208.8C1142.77 1201.06 1135.18 1194.65 1125.71 1189.56C1116.25 1184.47 1105.19 1181.92 1092.58 1181.92C1078.13 1181.92 1065.04 1185.49 1053.33 1192.61C1041.62 1199.74 1032.35 1209.92 1025.54 1223.15C1018.71 1236.39 1015.31 1251.55 1015.31 1268.66C1015.31 1285.77 1018.72 1301.29 1025.54 1314.62C1032.35 1327.96 1041.62 1338.29 1053.33 1345.63C1065.03 1352.96 1078.01 1356.62 1092.28 1356.62C1104.9 1356.62 1116.04 1354.01 1125.71 1348.82C1135.38 1343.63 1142.97 1337.06 1148.47 1329.13V1353.87H1191.54V1184.67H1148.47V1208.8ZM1142.36 1295.99C1138.29 1303.43 1132.8 1309.13 1125.87 1313.1C1118.94 1317.07 1111.51 1319.05 1103.57 1319.05C1095.63 1319.05 1088.56 1317.02 1081.73 1312.95C1074.9 1308.87 1069.41 1303.02 1065.23 1295.38C1061.06 1287.75 1058.98 1278.85 1058.98 1268.66C1058.98 1258.47 1061.06 1249.67 1065.23 1242.24C1069.41 1234.81 1074.85 1229.15 1081.58 1225.28C1088.29 1221.41 1095.63 1219.48 1103.57 1219.48C1111.51 1219.48 1118.94 1221.46 1125.87 1225.44C1132.78 1229.41 1138.29 1235.11 1142.36 1242.54C1146.44 1249.98 1148.47 1258.89 1148.47 1269.27C1148.47 1279.65 1146.42 1288.56 1142.36 1295.99Z" fill="white"/>
<path d="M1319.81 1263.47C1311.87 1260.22 1301.79 1257.06 1289.57 1254C1277.55 1250.94 1268.69 1247.95 1263 1244.99C1257.3 1242.05 1254.44 1237.72 1254.44 1232.01C1254.44 1226.92 1256.52 1222.95 1260.7 1220.09C1264.87 1217.24 1270.83 1215.82 1278.57 1215.82C1286.92 1215.82 1293.58 1217.8 1298.57 1221.77C1303.55 1225.74 1306.36 1231.08 1306.97 1237.81H1347.89C1346.67 1220.7 1340.05 1207.11 1328.05 1197.04C1316.03 1186.96 1299.95 1181.92 1279.78 1181.92C1266.14 1181.92 1254.28 1184.17 1244.2 1188.63C1234.12 1193.11 1226.38 1199.22 1220.99 1206.96C1215.6 1214.7 1212.89 1223.25 1212.89 1232.62C1212.89 1244.03 1215.8 1253.09 1221.6 1259.8C1227.4 1266.51 1234.33 1271.51 1242.37 1274.76C1250.42 1278.02 1260.75 1281.17 1273.38 1284.23C1285.6 1287.49 1294.49 1290.49 1300.1 1293.24C1305.7 1295.99 1308.5 1300.12 1308.5 1305.61C1308.5 1310.7 1306.22 1314.88 1301.62 1318.14C1297.04 1321.4 1290.67 1323.02 1282.54 1323.02C1274.4 1323.02 1267.22 1320.89 1261.61 1316.62C1256 1312.34 1252.8 1306.95 1251.99 1300.42H1208.92C1209.53 1310.8 1213.05 1320.27 1219.45 1328.82C1225.86 1337.38 1234.57 1344.15 1245.57 1349.13C1256.56 1354.12 1268.98 1356.62 1282.83 1356.62C1296.68 1356.62 1308.03 1354.42 1318.11 1350.05C1328.19 1345.68 1335.93 1339.62 1341.32 1331.88C1346.71 1324.14 1349.42 1315.38 1349.42 1305.61C1349.21 1294.42 1346.21 1285.41 1340.41 1278.58C1334.61 1271.77 1327.73 1266.72 1319.78 1263.47H1319.81Z" fill="white"/>
<path d="M1456.95 1219.79V1184.66H1419.08V1142.82H1376.01V1184.66H1355.86V1219.79H1376.01V1301.34C1376.01 1336.36 1394.03 1353.87 1430.07 1353.87H1456.95V1317.83H1437.1C1430.58 1317.83 1425.96 1316.56 1423.2 1314.01C1420.45 1311.48 1419.08 1307.35 1419.08 1301.64V1219.79H1456.95Z" fill="white"/>
<path d="M745.963 1505.94C739.778 1505.94 734.221 1504.87 729.291 1502.71C724.45 1500.47 720.641 1497.43 717.862 1493.57C715.084 1489.63 713.65 1485.1 713.56 1479.99H726.602C727.05 1484.38 728.843 1488.1 731.98 1491.15C735.207 1494.11 739.868 1495.59 745.963 1495.59C751.789 1495.59 756.36 1494.15 759.677 1491.29C763.083 1488.33 764.786 1484.56 764.786 1479.99C764.786 1476.41 763.8 1473.49 761.828 1471.25C759.856 1469.01 757.391 1467.31 754.433 1466.14C751.475 1464.98 747.487 1463.72 742.467 1462.38C736.282 1460.77 731.308 1459.15 727.543 1457.54C723.868 1455.93 720.686 1453.42 717.997 1450.01C715.397 1446.51 714.098 1441.85 714.098 1436.03C714.098 1430.92 715.397 1426.39 717.997 1422.45C720.596 1418.5 724.226 1415.46 728.887 1413.3C733.638 1411.15 739.061 1410.08 745.156 1410.08C753.94 1410.08 761.111 1412.27 766.668 1416.67C772.315 1421.06 775.497 1426.88 776.214 1434.14H762.769C762.321 1430.56 760.439 1427.42 757.122 1424.73C753.806 1421.95 749.414 1420.56 743.946 1420.56C738.837 1420.56 734.669 1421.91 731.442 1424.6C728.215 1427.2 726.602 1430.87 726.602 1435.62C726.602 1439.03 727.543 1441.81 729.425 1443.96C731.397 1446.11 733.772 1447.77 736.551 1448.93C739.419 1450.01 743.408 1451.26 748.517 1452.7C754.702 1454.4 759.677 1456.1 763.441 1457.81C767.206 1459.42 770.433 1461.98 773.122 1465.47C775.811 1468.88 777.156 1473.54 777.156 1479.45C777.156 1484.03 775.945 1488.33 773.525 1492.36C771.105 1496.4 767.52 1499.67 762.769 1502.18C758.019 1504.69 752.416 1505.94 745.963 1505.94ZM831.731 1429.98C837.289 1429.98 842.308 1431.19 846.79 1433.61C851.272 1435.94 854.767 1439.48 857.277 1444.23C859.877 1448.98 861.176 1454.76 861.176 1461.57V1505H849.076V1463.32C849.076 1455.97 847.238 1450.37 843.563 1446.51C839.888 1442.57 834.869 1440.6 828.505 1440.6C822.051 1440.6 816.897 1442.61 813.043 1446.65C809.278 1450.68 807.396 1456.55 807.396 1464.26V1505H795.161V1405.51H807.396V1441.81C809.816 1438.04 813.132 1435.13 817.345 1433.07C821.648 1431.01 826.443 1429.98 831.731 1429.98ZM913.296 1506.21C906.395 1506.21 900.12 1504.64 894.473 1501.5C888.916 1498.37 884.524 1493.93 881.297 1488.19C878.16 1482.37 876.591 1475.64 876.591 1468.03C876.591 1460.5 878.204 1453.86 881.431 1448.13C884.748 1442.3 889.23 1437.86 894.876 1434.82C900.523 1431.68 906.843 1430.11 913.834 1430.11C920.826 1430.11 927.145 1431.68 932.792 1434.82C938.439 1437.86 942.876 1442.26 946.103 1447.99C949.419 1453.73 951.077 1460.41 951.077 1468.03C951.077 1475.64 949.374 1482.37 945.968 1488.19C942.652 1493.93 938.125 1498.37 932.389 1501.5C926.652 1504.64 920.288 1506.21 913.296 1506.21ZM913.296 1495.45C917.688 1495.45 921.812 1494.42 925.666 1492.36C929.52 1490.3 932.613 1487.21 934.943 1483.08C937.363 1478.96 938.573 1473.94 938.573 1468.03C938.573 1462.11 937.408 1457.09 935.078 1452.97C932.747 1448.84 929.7 1445.8 925.935 1443.82C922.17 1441.76 918.092 1440.73 913.7 1440.73C909.218 1440.73 905.095 1441.76 901.33 1443.82C897.655 1445.8 894.697 1448.84 892.456 1452.97C890.216 1457.09 889.095 1462.11 889.095 1468.03C889.095 1474.03 890.171 1479.1 892.322 1483.22C894.563 1487.34 897.521 1490.43 901.196 1492.5C904.871 1494.47 908.904 1495.45 913.296 1495.45ZM1065.31 1431.32L1042.32 1505H1029.68L1011.94 1446.51L994.189 1505H981.551L958.425 1431.32H970.929L987.87 1493.17L1006.16 1431.32H1018.66L1036.54 1493.3L1053.21 1431.32H1065.31Z" fill="white"/>
</g>
<defs>
<radialGradient id="paint0_radial_2189_96" cx="0" cy="0" r="1" gradientUnits="userSpaceOnUse" gradientTransform="translate(882 290.5) rotate(90) scale(1473.5)">
<stop stop-color="#141830"/>
<stop offset="1" stop-color="#0A0D17"/>
</radialGradient>
<clipPath id="clip0_2189_96">
<rect width="1764" height="1764" fill="white"/>
</clipPath>
</defs>
</svg>
